<?xml version="1.0" encoding="UTF-8"?>
<svg width="40px" height="40px" viewBox="0 0 40 40" version="1.1" xmlns="http://www.w3.org/2000/svg">
    <title>Dry Bag</title>
    <g stroke="none" stroke-width="1" fill="none" fill-rule="evenodd">
        <g transform="translate(5.000000, 2.000000)">
            <path d="M3,10 C3,7.23857625 7.02943725,5 12,5 C16.9705627,5 21,7.23857625 21,10 L21,32 C21,34.7614237 16.9705627,37 12,37 C7.02943725,37 3,34.7614237 3,32 L3,10 Z" fill="#4682B4" fill-rule="nonzero"></path>
            <path d="M3,10 C3,12.7614237 7.02943725,15 12,15 C16.9705627,15 21,12.7614237 21,10" stroke="#2C3E50" stroke-width="2" stroke-linecap="round"></path>
            <path d="M3,32 C3,34.7614237 7.02943725,37 12,37 C16.9705627,37 21,34.7614237 21,32" stroke="#2C3E50" stroke-width="2" stroke-linecap="round"></path>
            <path d="M3,10 L3,32" stroke="#2C3E50" stroke-width="2" stroke-linecap="round"></path>
            <path d="M21,10 L21,32" stroke="#2C3E50" stroke-width="2" stroke-linecap="round"></path>
            <path d="M12,0 L16,5 L8,5 L12,0 Z" fill="#2C3E50" fill-rule="nonzero"></path>
            <path d="M8,0 L12,0 L16,0" stroke="#2C3E50" stroke-width="2" stroke-linecap="round"></path>
            <path d="M8,0 L8,5" stroke="#2C3E50" stroke-width="2" stroke-linecap="round"></path>
            <path d="M16,0 L16,5" stroke="#2C3E50" stroke-width="2" stroke-linecap="round"></path>
            <circle fill="#2C3E50" cx="12" cy="3" r="1"></circle>
            <path d="M8,20 L16,20" stroke="#FFFFFF" stroke-width="1" stroke-linecap="round" stroke-dasharray="1,2"></path>
            <path d="M8,25 L16,25" stroke="#FFFFFF" stroke-width="1" stroke-linecap="round" stroke-dasharray="1,2"></path>
        </g>
    </g>
</svg>
